<mxfile host="app.diagrams.net" agent="Mozilla/5.0 (Windows NT 10.0; Win64; x64) AppleWebKit/537.36 (KHTML, like Gecko) Chrome/129.0.0.0 Safari/537.36 Edg/129.0.0.0" version="24.7.17">
  <diagram name="第 1 页" id="jNkg-qD661h4JbIqGYAj">
    <mxGraphModel dx="837" dy="432" grid="0" gridSize="10" guides="1" tooltips="1" connect="1" arrows="1" fold="1" page="1" pageScale="1" pageWidth="827" pageHeight="1169" math="0" shadow="0">
      <root>
        <mxCell id="0" />
        <mxCell id="1" parent="0" />
        <mxCell id="uA1xIwheRWDfGwnA1wnH-1" value="&lt;i&gt;LeafPage::SplitLeaf()&lt;/i&gt;" style="rounded=0;whiteSpace=wrap;html=1;fillColor=#dae8fc;strokeColor=#6c8ebf;" parent="1" vertex="1">
          <mxGeometry x="490" y="300" width="120" height="60" as="geometry" />
        </mxCell>
        <mxCell id="uA1xIwheRWDfGwnA1wnH-2" value="" style="endArrow=classic;html=1;rounded=0;" parent="1" edge="1">
          <mxGeometry width="50" height="50" relative="1" as="geometry">
            <mxPoint x="550" y="390" as="sourcePoint" />
            <mxPoint x="549.66" y="360" as="targetPoint" />
          </mxGeometry>
        </mxCell>
        <mxCell id="uA1xIwheRWDfGwnA1wnH-4" value="update_guard" style="text;html=1;align=center;verticalAlign=middle;whiteSpace=wrap;rounded=0;fillColor=#d5e8d4;strokeColor=#82b366;" parent="1" vertex="1">
          <mxGeometry x="470" y="380" width="80" height="30" as="geometry" />
        </mxCell>
        <mxCell id="uA1xIwheRWDfGwnA1wnH-5" value="(key,val)" style="text;html=1;align=center;verticalAlign=middle;whiteSpace=wrap;rounded=0;fillColor=#d5e8d4;strokeColor=#82b366;" parent="1" vertex="1">
          <mxGeometry x="550" y="380" width="60" height="30" as="geometry" />
        </mxCell>
        <mxCell id="uA1xIwheRWDfGwnA1wnH-7" value="" style="endArrow=classic;html=1;rounded=0;" parent="1" edge="1">
          <mxGeometry width="50" height="50" relative="1" as="geometry">
            <mxPoint x="550.34" y="300" as="sourcePoint" />
            <mxPoint x="550" y="270" as="targetPoint" />
          </mxGeometry>
        </mxCell>
        <mxCell id="uA1xIwheRWDfGwnA1wnH-8" value="(key&#39;,val&#39;)" style="text;html=1;align=center;verticalAlign=middle;whiteSpace=wrap;rounded=0;fillColor=#d5e8d4;strokeColor=#82b366;" parent="1" vertex="1">
          <mxGeometry x="585" y="240" width="60" height="30" as="geometry" />
        </mxCell>
        <mxCell id="uA1xIwheRWDfGwnA1wnH-9" value="Left_leaf" style="text;html=1;align=center;verticalAlign=middle;whiteSpace=wrap;rounded=0;fillColor=#d5e8d4;strokeColor=#82b366;" parent="1" vertex="1">
          <mxGeometry x="520" y="240" width="60" height="30" as="geometry" />
        </mxCell>
        <mxCell id="uA1xIwheRWDfGwnA1wnH-10" value="Right_leaf" style="text;html=1;align=center;verticalAlign=middle;whiteSpace=wrap;rounded=0;fillColor=#d5e8d4;strokeColor=#82b366;" parent="1" vertex="1">
          <mxGeometry x="455" y="240" width="60" height="30" as="geometry" />
        </mxCell>
        <mxCell id="uA1xIwheRWDfGwnA1wnH-11" value="&lt;i&gt;BPlusTree::RecInsert2Inner()&lt;/i&gt;" style="rounded=0;whiteSpace=wrap;html=1;fillColor=#dae8fc;strokeColor=#6c8ebf;" parent="1" vertex="1">
          <mxGeometry x="375" y="130" width="235" height="60" as="geometry" />
        </mxCell>
        <mxCell id="uA1xIwheRWDfGwnA1wnH-12" value="parent_guard&lt;div&gt;update_guard的父节点&lt;/div&gt;" style="text;html=1;align=center;verticalAlign=middle;whiteSpace=wrap;rounded=0;fillColor=#d5e8d4;strokeColor=#82b366;" parent="1" vertex="1">
          <mxGeometry x="230" y="280" width="130" height="30" as="geometry" />
        </mxCell>
        <mxCell id="uA1xIwheRWDfGwnA1wnH-13" value="" style="curved=1;endArrow=classic;html=1;rounded=0;" parent="1" edge="1">
          <mxGeometry width="50" height="50" relative="1" as="geometry">
            <mxPoint x="360" y="280" as="sourcePoint" />
            <mxPoint x="420" y="200" as="targetPoint" />
            <Array as="points">
              <mxPoint x="400" y="270" />
            </Array>
          </mxGeometry>
        </mxCell>
        <mxCell id="uA1xIwheRWDfGwnA1wnH-15" value="" style="endArrow=classic;html=1;rounded=0;" parent="1" edge="1">
          <mxGeometry width="50" height="50" relative="1" as="geometry">
            <mxPoint x="540" y="230" as="sourcePoint" />
            <mxPoint x="540" y="190" as="targetPoint" />
          </mxGeometry>
        </mxCell>
        <mxCell id="uA1xIwheRWDfGwnA1wnH-18" value="当update_page节点满了之后的逻辑" style="text;html=1;align=center;verticalAlign=middle;whiteSpace=wrap;rounded=0;" parent="1" vertex="1">
          <mxGeometry x="190" y="30" width="210" height="30" as="geometry" />
        </mxCell>
        <mxCell id="uA1xIwheRWDfGwnA1wnH-22" value="" style="endArrow=none;html=1;rounded=0;exitX=0.199;exitY=0.009;exitDx=0;exitDy=0;exitPerimeter=0;" parent="1" source="uA1xIwheRWDfGwnA1wnH-11" edge="1">
          <mxGeometry width="50" height="50" relative="1" as="geometry">
            <mxPoint x="420" y="125.55999999999995" as="sourcePoint" />
            <mxPoint x="421" y="67.5" as="targetPoint" />
          </mxGeometry>
        </mxCell>
        <mxCell id="uA1xIwheRWDfGwnA1wnH-23" value="按需继续递归" style="text;html=1;align=center;verticalAlign=middle;whiteSpace=wrap;rounded=0;" parent="1" vertex="1">
          <mxGeometry x="505" y="80" width="90" height="30" as="geometry" />
        </mxCell>
        <mxCell id="LFyUqhMQbfVMUKzyEo85-1" value="&lt;i&gt;InternalPage::SplitInner()&lt;/i&gt;" style="rounded=0;whiteSpace=wrap;html=1;fillColor=#dae8fc;strokeColor=#6c8ebf;" vertex="1" parent="1">
          <mxGeometry x="410" y="22.5" width="150" height="45" as="geometry" />
        </mxCell>
        <mxCell id="LFyUqhMQbfVMUKzyEo85-2" value="" style="endArrow=classic;html=1;rounded=0;entryX=0.532;entryY=0;entryDx=0;entryDy=0;entryPerimeter=0;exitX=0.6;exitY=1.011;exitDx=0;exitDy=0;exitPerimeter=0;" edge="1" parent="1" source="LFyUqhMQbfVMUKzyEo85-1" target="uA1xIwheRWDfGwnA1wnH-11">
          <mxGeometry width="50" height="50" relative="1" as="geometry">
            <mxPoint x="500" y="70" as="sourcePoint" />
            <mxPoint x="550" y="30" as="targetPoint" />
          </mxGeometry>
        </mxCell>
      </root>
    </mxGraphModel>
  </diagram>
</mxfile>
